<svg width="1528" height="463" viewBox="0 0 1528 463" fill="none" xmlns="http://www.w3.org/2000/svg">
<rect width="1528" height="463" rx="24" fill="#D9D9D9" fill-opacity="0.68"/>
<path d="M339.48 421L333.056 409.34H331.252V421H323.728V390.112H336.356C338.791 390.112 340.859 390.537 342.56 391.388C344.291 392.239 345.581 393.412 346.432 394.908C347.283 396.375 347.708 398.017 347.708 399.836C347.708 401.889 347.121 403.723 345.948 405.336C344.804 406.949 343.103 408.093 340.844 408.768L347.972 421H339.48ZM331.252 404.016H335.916C337.295 404.016 338.321 403.679 338.996 403.004C339.7 402.329 340.052 401.376 340.052 400.144C340.052 398.971 339.7 398.047 338.996 397.372C338.321 396.697 337.295 396.36 335.916 396.36H331.252V404.016ZM375.575 408.328C375.575 409.032 375.531 409.765 375.443 410.528H358.415C358.532 412.053 359.016 413.227 359.867 414.048C360.747 414.84 361.818 415.236 363.079 415.236C364.956 415.236 366.262 414.444 366.995 412.86H375.003C374.592 414.473 373.844 415.925 372.759 417.216C371.703 418.507 370.368 419.519 368.755 420.252C367.142 420.985 365.338 421.352 363.343 421.352C360.938 421.352 358.796 420.839 356.919 419.812C355.042 418.785 353.575 417.319 352.519 415.412C351.463 413.505 350.935 411.276 350.935 408.724C350.935 406.172 351.448 403.943 352.475 402.036C353.531 400.129 354.998 398.663 356.875 397.636C358.752 396.609 360.908 396.096 363.343 396.096C365.719 396.096 367.831 396.595 369.679 397.592C371.527 398.589 372.964 400.012 373.991 401.86C375.047 403.708 375.575 405.864 375.575 408.328ZM367.875 406.348C367.875 405.057 367.435 404.031 366.555 403.268C365.675 402.505 364.575 402.124 363.255 402.124C361.994 402.124 360.923 402.491 360.043 403.224C359.192 403.957 358.664 404.999 358.459 406.348H367.875ZM378.048 408.68C378.048 406.157 378.518 403.943 379.456 402.036C380.424 400.129 381.73 398.663 383.372 397.636C385.015 396.609 386.848 396.096 388.872 396.096C390.603 396.096 392.114 396.448 393.404 397.152C394.724 397.856 395.736 398.78 396.44 399.924V396.448H403.964V421H396.44V417.524C395.707 418.668 394.68 419.592 393.36 420.296C392.07 421 390.559 421.352 388.828 421.352C386.834 421.352 385.015 420.839 383.372 419.812C381.73 418.756 380.424 417.275 379.456 415.368C378.518 413.432 378.048 411.203 378.048 408.68ZM396.44 408.724C396.44 406.847 395.912 405.365 394.856 404.28C393.83 403.195 392.568 402.652 391.072 402.652C389.576 402.652 388.3 403.195 387.244 404.28C386.218 405.336 385.704 406.803 385.704 408.68C385.704 410.557 386.218 412.053 387.244 413.168C388.3 414.253 389.576 414.796 391.072 414.796C392.568 414.796 393.83 414.253 394.856 413.168C395.912 412.083 396.44 410.601 396.44 408.724ZM416.932 388.44V421H409.408V388.44H416.932ZM460.704 390.112L449.748 421H440.332L429.376 390.112H437.384L445.04 413.432L452.74 390.112H460.704ZM462.353 408.68C462.353 406.157 462.822 403.943 463.761 402.036C464.729 400.129 466.034 398.663 467.677 397.636C469.32 396.609 471.153 396.096 473.177 396.096C474.908 396.096 476.418 396.448 477.709 397.152C479.029 397.856 480.041 398.78 480.745 399.924V396.448H488.269V421H480.745V417.524C480.012 418.668 478.985 419.592 477.665 420.296C476.374 421 474.864 421.352 473.133 421.352C471.138 421.352 469.32 420.839 467.677 419.812C466.034 418.756 464.729 417.275 463.761 415.368C462.822 413.432 462.353 411.203 462.353 408.68ZM480.745 408.724C480.745 406.847 480.217 405.365 479.161 404.28C478.134 403.195 476.873 402.652 475.377 402.652C473.881 402.652 472.605 403.195 471.549 404.28C470.522 405.336 470.009 406.803 470.009 408.68C470.009 410.557 470.522 412.053 471.549 413.168C472.605 414.253 473.881 414.796 475.377 414.796C476.873 414.796 478.134 414.253 479.161 413.168C480.217 412.083 480.745 410.601 480.745 408.724ZM501.236 388.44V421H493.712V388.44H501.236ZM530.933 396.448V421H523.409V417.656C522.646 418.741 521.605 419.621 520.285 420.296C518.994 420.941 517.557 421.264 515.973 421.264C514.096 421.264 512.438 420.853 511.001 420.032C509.564 419.181 508.449 417.964 507.657 416.38C506.865 414.796 506.469 412.933 506.469 410.792V396.448H513.949V409.78C513.949 411.423 514.374 412.699 515.225 413.608C516.076 414.517 517.22 414.972 518.657 414.972C520.124 414.972 521.282 414.517 522.133 413.608C522.984 412.699 523.409 411.423 523.409 409.78V396.448H530.933ZM559.481 408.328C559.481 409.032 559.437 409.765 559.349 410.528H542.321C542.439 412.053 542.923 413.227 543.773 414.048C544.653 414.84 545.724 415.236 546.985 415.236C548.863 415.236 550.168 414.444 550.901 412.86H558.909C558.499 414.473 557.751 415.925 556.665 417.216C555.609 418.507 554.275 419.519 552.661 420.252C551.048 420.985 549.244 421.352 547.249 421.352C544.844 421.352 542.703 420.839 540.825 419.812C538.948 418.785 537.481 417.319 536.425 415.412C535.369 413.505 534.841 411.276 534.841 408.724C534.841 406.172 535.355 403.943 536.381 402.036C537.437 400.129 538.904 398.663 540.781 397.636C542.659 396.609 544.815 396.096 547.249 396.096C549.625 396.096 551.737 396.595 553.585 397.592C555.433 398.589 556.871 400.012 557.897 401.86C558.953 403.708 559.481 405.864 559.481 408.328ZM551.781 406.348C551.781 405.057 551.341 404.031 550.461 403.268C549.581 402.505 548.481 402.124 547.161 402.124C545.9 402.124 544.829 402.491 543.949 403.224C543.099 403.957 542.571 404.999 542.365 406.348H551.781ZM573.439 421.352C571.297 421.352 569.391 420.985 567.719 420.252C566.047 419.519 564.727 418.521 563.759 417.26C562.791 415.969 562.248 414.532 562.131 412.948H569.567C569.655 413.799 570.051 414.488 570.755 415.016C571.459 415.544 572.324 415.808 573.351 415.808C574.289 415.808 575.008 415.632 575.507 415.28C576.035 414.899 576.299 414.415 576.299 413.828C576.299 413.124 575.932 412.611 575.199 412.288C574.465 411.936 573.277 411.555 571.635 411.144C569.875 410.733 568.408 410.308 567.235 409.868C566.061 409.399 565.049 408.68 564.199 407.712C563.348 406.715 562.923 405.38 562.923 403.708C562.923 402.3 563.304 401.024 564.067 399.88C564.859 398.707 566.003 397.783 567.499 397.108C569.024 396.433 570.828 396.096 572.911 396.096C575.991 396.096 578.411 396.859 580.171 398.384C581.96 399.909 582.987 401.933 583.251 404.456H576.299C576.181 403.605 575.8 402.931 575.155 402.432C574.539 401.933 573.717 401.684 572.691 401.684C571.811 401.684 571.136 401.86 570.667 402.212C570.197 402.535 569.963 402.989 569.963 403.576C569.963 404.28 570.329 404.808 571.063 405.16C571.825 405.512 572.999 405.864 574.583 406.216C576.401 406.685 577.883 407.155 579.027 407.624C580.171 408.064 581.168 408.797 582.019 409.824C582.899 410.821 583.353 412.171 583.383 413.872C583.383 415.309 582.972 416.6 582.151 417.744C581.359 418.859 580.2 419.739 578.675 420.384C577.179 421.029 575.433 421.352 573.439 421.352ZM591.506 421.352C590.186 421.352 589.1 420.971 588.25 420.208C587.428 419.416 587.018 418.448 587.018 417.304C587.018 416.131 587.428 415.148 588.25 414.356C589.1 413.564 590.186 413.168 591.506 413.168C592.796 413.168 593.852 413.564 594.674 414.356C595.524 415.148 595.95 416.131 595.95 417.304C595.95 418.448 595.524 419.416 594.674 420.208C593.852 420.971 592.796 421.352 591.506 421.352ZM591.506 403.444C590.186 403.444 589.1 403.063 588.25 402.3C587.428 401.508 587.018 400.54 587.018 399.396C587.018 398.223 587.428 397.24 588.25 396.448C589.1 395.656 590.186 395.26 591.506 395.26C592.796 395.26 593.852 395.656 594.674 396.448C595.524 397.24 595.95 398.223 595.95 399.396C595.95 400.54 595.524 401.508 594.674 402.3C593.852 403.063 592.796 403.444 591.506 403.444ZM632.034 390.112V396.14H623.85V421H616.326V396.14H608.142V390.112H632.034ZM650.902 396.184C653.718 396.184 655.977 397.123 657.678 399C659.379 400.848 660.23 403.4 660.23 406.656V421H652.75V407.668C652.75 406.025 652.325 404.749 651.474 403.84C650.623 402.931 649.479 402.476 648.042 402.476C646.605 402.476 645.461 402.931 644.61 403.84C643.759 404.749 643.334 406.025 643.334 407.668V421H635.81V388.44H643.334V399.748C644.097 398.663 645.138 397.797 646.458 397.152C647.778 396.507 649.259 396.184 650.902 396.184ZM688.602 408.328C688.602 409.032 688.558 409.765 688.47 410.528H671.442C671.56 412.053 672.044 413.227 672.894 414.048C673.774 414.84 674.845 415.236 676.106 415.236C677.984 415.236 679.289 414.444 680.022 412.86H688.03C687.62 414.473 686.872 415.925 685.786 417.216C684.73 418.507 683.396 419.519 681.782 420.252C680.169 420.985 678.365 421.352 676.37 421.352C673.965 421.352 671.824 420.839 669.946 419.812C668.069 418.785 666.602 417.319 665.546 415.412C664.49 413.505 663.962 411.276 663.962 408.724C663.962 406.172 664.476 403.943 665.502 402.036C666.558 400.129 668.025 398.663 669.902 397.636C671.78 396.609 673.936 396.096 676.37 396.096C678.746 396.096 680.858 396.595 682.706 397.592C684.554 398.589 685.992 400.012 687.018 401.86C688.074 403.708 688.602 405.864 688.602 408.328ZM680.902 406.348C680.902 405.057 680.462 404.031 679.582 403.268C678.702 402.505 677.602 402.124 676.282 402.124C675.021 402.124 673.95 402.491 673.07 403.224C672.22 403.957 671.692 404.999 671.486 406.348H680.902ZM714.216 402.696H710.168V421H702.644V402.696H699.916V396.448H702.644V395.744C702.644 392.723 703.509 390.435 705.24 388.88C706.971 387.296 709.508 386.504 712.852 386.504C713.409 386.504 713.82 386.519 714.084 386.548V392.928C712.647 392.84 711.635 393.045 711.048 393.544C710.461 394.043 710.168 394.937 710.168 396.228V396.448H714.216V402.696ZM741.995 396.448V421H734.471V417.656C733.709 418.741 732.667 419.621 731.347 420.296C730.057 420.941 728.619 421.264 727.035 421.264C725.158 421.264 723.501 420.853 722.063 420.032C720.626 419.181 719.511 417.964 718.719 416.38C717.927 414.796 717.531 412.933 717.531 410.792V396.448H725.011V409.78C725.011 411.423 725.437 412.699 726.287 413.608C727.138 414.517 728.282 414.972 729.719 414.972C731.186 414.972 732.345 414.517 733.195 413.608C734.046 412.699 734.471 411.423 734.471 409.78V396.448H741.995ZM761.084 414.62V421H757.256C754.528 421 752.401 420.34 750.876 419.02C749.351 417.671 748.588 415.485 748.588 412.464V402.696H745.596V396.448H748.588V390.464H756.112V396.448H761.04V402.696H756.112V412.552C756.112 413.285 756.288 413.813 756.64 414.136C756.992 414.459 757.579 414.62 758.4 414.62H761.084ZM789.519 396.448V421H781.995V417.656C781.232 418.741 780.191 419.621 778.871 420.296C777.58 420.941 776.143 421.264 774.559 421.264C772.682 421.264 771.024 420.853 769.587 420.032C768.15 419.181 767.035 417.964 766.243 416.38C765.451 414.796 765.055 412.933 765.055 410.792V396.448H772.535V409.78C772.535 411.423 772.96 412.699 773.811 413.608C774.662 414.517 775.806 414.972 777.243 414.972C778.71 414.972 779.868 414.517 780.719 413.608C781.57 412.699 781.995 411.423 781.995 409.78V396.448H789.519ZM802.447 400.54C803.327 399.191 804.427 398.135 805.747 397.372C807.067 396.58 808.534 396.184 810.147 396.184V404.148H808.079C806.202 404.148 804.794 404.559 803.855 405.38C802.917 406.172 802.447 407.58 802.447 409.604V421H794.923V396.448H802.447V400.54ZM836.888 408.328C836.888 409.032 836.844 409.765 836.756 410.528H819.728C819.845 412.053 820.329 413.227 821.18 414.048C822.06 414.84 823.13 415.236 824.392 415.236C826.269 415.236 827.574 414.444 828.308 412.86H836.316C835.905 414.473 835.157 415.925 834.072 417.216C833.016 418.507 831.681 419.519 830.068 420.252C828.454 420.985 826.65 421.352 824.656 421.352C822.25 421.352 820.109 420.839 818.232 419.812C816.354 418.785 814.888 417.319 813.832 415.412C812.776 413.505 812.248 411.276 812.248 408.724C812.248 406.172 812.761 403.943 813.788 402.036C814.844 400.129 816.31 398.663 818.188 397.636C820.065 396.609 822.221 396.096 824.656 396.096C827.032 396.096 829.144 396.595 830.992 397.592C832.84 398.589 834.277 400.012 835.304 401.86C836.36 403.708 836.888 405.864 836.888 408.328ZM829.188 406.348C829.188 405.057 828.748 404.031 827.868 403.268C826.988 402.505 825.888 402.124 824.568 402.124C823.306 402.124 822.236 402.491 821.356 403.224C820.505 403.957 819.977 404.999 819.772 406.348H829.188ZM861.357 421.352C858.952 421.352 856.781 420.839 854.845 419.812C852.938 418.785 851.428 417.319 850.313 415.412C849.228 413.505 848.685 411.276 848.685 408.724C848.685 406.201 849.242 403.987 850.357 402.08C851.472 400.144 852.997 398.663 854.933 397.636C856.869 396.609 859.04 396.096 861.445 396.096C863.85 396.096 866.021 396.609 867.957 397.636C869.893 398.663 871.418 400.144 872.533 402.08C873.648 403.987 874.205 406.201 874.205 408.724C874.205 411.247 873.633 413.476 872.489 415.412C871.374 417.319 869.834 418.785 867.869 419.812C865.933 420.839 863.762 421.352 861.357 421.352ZM861.357 414.84C862.794 414.84 864.012 414.312 865.009 413.256C866.036 412.2 866.549 410.689 866.549 408.724C866.549 406.759 866.05 405.248 865.053 404.192C864.085 403.136 862.882 402.608 861.445 402.608C859.978 402.608 858.761 403.136 857.793 404.192C856.825 405.219 856.341 406.729 856.341 408.724C856.341 410.689 856.81 412.2 857.749 413.256C858.717 414.312 859.92 414.84 861.357 414.84ZM890.517 402.696H886.469V421H878.945V402.696H876.217V396.448H878.945V395.744C878.945 392.723 879.81 390.435 881.541 388.88C883.271 387.296 885.809 386.504 889.153 386.504C889.71 386.504 890.121 386.519 890.385 386.548V392.928C888.947 392.84 887.935 393.045 887.349 393.544C886.762 394.043 886.469 394.937 886.469 396.228V396.448H890.517V402.696ZM901.88 408.68C901.88 406.157 902.35 403.943 903.288 402.036C904.256 400.129 905.562 398.663 907.204 397.636C908.847 396.609 910.68 396.096 912.704 396.096C914.318 396.096 915.784 396.433 917.104 397.108C918.454 397.783 919.51 398.692 920.272 399.836V388.44H927.796V421H920.272V417.48C919.568 418.653 918.556 419.592 917.236 420.296C915.946 421 914.435 421.352 912.704 421.352C910.68 421.352 908.847 420.839 907.204 419.812C905.562 418.756 904.256 417.275 903.288 415.368C902.35 413.432 901.88 411.203 901.88 408.68ZM920.272 408.724C920.272 406.847 919.744 405.365 918.688 404.28C917.662 403.195 916.4 402.652 914.904 402.652C913.408 402.652 912.132 403.195 911.076 404.28C910.05 405.336 909.536 406.803 909.536 408.68C909.536 410.557 910.05 412.053 911.076 413.168C912.132 414.253 913.408 414.796 914.904 414.796C916.4 414.796 917.662 414.253 918.688 413.168C919.744 412.083 920.272 410.601 920.272 408.724ZM937.024 393.896C935.704 393.896 934.618 393.515 933.768 392.752C932.946 391.96 932.536 390.992 932.536 389.848C932.536 388.675 932.946 387.707 933.768 386.944C934.618 386.152 935.704 385.756 937.024 385.756C938.314 385.756 939.37 386.152 940.192 386.944C941.042 387.707 941.468 388.675 941.468 389.848C941.468 390.992 941.042 391.96 940.192 392.752C939.37 393.515 938.314 393.896 937.024 393.896ZM940.764 396.448V421H933.24V396.448H940.764ZM953.74 400.54C954.62 399.191 955.72 398.135 957.04 397.372C958.36 396.58 959.827 396.184 961.44 396.184V404.148H959.372C957.495 404.148 956.087 404.559 955.148 405.38C954.21 406.172 953.74 407.58 953.74 409.604V421H946.216V396.448H953.74V400.54ZM988.181 408.328C988.181 409.032 988.137 409.765 988.049 410.528H971.021C971.138 412.053 971.622 413.227 972.473 414.048C973.353 414.84 974.423 415.236 975.685 415.236C977.562 415.236 978.867 414.444 979.601 412.86H987.609C987.198 414.473 986.45 415.925 985.365 417.216C984.309 418.507 982.974 419.519 981.361 420.252C979.747 420.985 977.943 421.352 975.949 421.352C973.543 421.352 971.402 420.839 969.525 419.812C967.647 418.785 966.181 417.319 965.125 415.412C964.069 413.505 963.541 411.276 963.541 408.724C963.541 406.172 964.054 403.943 965.081 402.036C966.137 400.129 967.603 398.663 969.481 397.636C971.358 396.609 973.514 396.096 975.949 396.096C978.325 396.096 980.437 396.595 982.285 397.592C984.133 398.589 985.57 400.012 986.597 401.86C987.653 403.708 988.181 405.864 988.181 408.328ZM980.481 406.348C980.481 405.057 980.041 404.031 979.161 403.268C978.281 402.505 977.181 402.124 975.861 402.124C974.599 402.124 973.529 402.491 972.649 403.224C971.798 403.957 971.27 404.999 971.065 406.348H980.481ZM990.654 408.724C990.654 406.172 991.167 403.943 992.194 402.036C993.25 400.129 994.702 398.663 996.55 397.636C998.427 396.609 1000.57 396.096 1002.97 396.096C1006.05 396.096 1008.62 396.903 1010.67 398.516C1012.76 400.129 1014.12 402.403 1014.77 405.336H1006.76C1006.08 403.459 1004.78 402.52 1002.84 402.52C1001.46 402.52 1000.36 403.063 999.542 404.148C998.721 405.204 998.31 406.729 998.31 408.724C998.31 410.719 998.721 412.259 999.542 413.344C1000.36 414.4 1001.46 414.928 1002.84 414.928C1004.78 414.928 1006.08 413.989 1006.76 412.112H1014.77C1014.12 414.987 1012.76 417.245 1010.67 418.888C1008.59 420.531 1006.02 421.352 1002.97 421.352C1000.57 421.352 998.427 420.839 996.55 419.812C994.702 418.785 993.25 417.319 992.194 415.412C991.167 413.505 990.654 411.276 990.654 408.724ZM1032.47 414.62V421H1028.65C1025.92 421 1023.79 420.34 1022.27 419.02C1020.74 417.671 1019.98 415.485 1019.98 412.464V402.696H1016.99V396.448H1019.98V390.464H1027.5V396.448H1032.43V402.696H1027.5V412.552C1027.5 413.285 1027.68 413.813 1028.03 414.136C1028.38 414.459 1028.97 414.62 1029.79 414.62H1032.47ZM1055.98 421.352C1053.84 421.352 1051.93 420.985 1050.26 420.252C1048.59 419.519 1047.27 418.521 1046.3 417.26C1045.33 415.969 1044.79 414.532 1044.67 412.948H1052.11C1052.19 413.799 1052.59 414.488 1053.29 415.016C1054 415.544 1054.86 415.808 1055.89 415.808C1056.83 415.808 1057.55 415.632 1058.05 415.28C1058.57 414.899 1058.84 414.415 1058.84 413.828C1058.84 413.124 1058.47 412.611 1057.74 412.288C1057 411.936 1055.82 411.555 1054.17 411.144C1052.41 410.733 1050.95 410.308 1049.77 409.868C1048.6 409.399 1047.59 408.68 1046.74 407.712C1045.89 406.715 1045.46 405.38 1045.46 403.708C1045.46 402.3 1045.84 401.024 1046.61 399.88C1047.4 398.707 1048.54 397.783 1050.04 397.108C1051.56 396.433 1053.37 396.096 1055.45 396.096C1058.53 396.096 1060.95 396.859 1062.71 398.384C1064.5 399.909 1065.53 401.933 1065.79 404.456H1058.84C1058.72 403.605 1058.34 402.931 1057.69 402.432C1057.08 401.933 1056.26 401.684 1055.23 401.684C1054.35 401.684 1053.68 401.86 1053.21 402.212C1052.74 402.535 1052.5 402.989 1052.5 403.576C1052.5 404.28 1052.87 404.808 1053.6 405.16C1054.36 405.512 1055.54 405.864 1057.12 406.216C1058.94 406.685 1060.42 407.155 1061.57 407.624C1062.71 408.064 1063.71 408.797 1064.56 409.824C1065.44 410.821 1065.89 412.171 1065.92 413.872C1065.92 415.309 1065.51 416.6 1064.69 417.744C1063.9 418.859 1062.74 419.739 1061.21 420.384C1059.72 421.029 1057.97 421.352 1055.98 421.352ZM1093.67 408.328C1093.67 409.032 1093.62 409.765 1093.54 410.528H1076.51C1076.63 412.053 1077.11 413.227 1077.96 414.048C1078.84 414.84 1079.91 415.236 1081.17 415.236C1083.05 415.236 1084.36 414.444 1085.09 412.86H1093.1C1092.69 414.473 1091.94 415.925 1090.85 417.216C1089.8 418.507 1088.46 419.519 1086.85 420.252C1085.24 420.985 1083.43 421.352 1081.44 421.352C1079.03 421.352 1076.89 420.839 1075.01 419.812C1073.14 418.785 1071.67 417.319 1070.61 415.412C1069.56 413.505 1069.03 411.276 1069.03 408.724C1069.03 406.172 1069.54 403.943 1070.57 402.036C1071.62 400.129 1073.09 398.663 1074.97 397.636C1076.85 396.609 1079 396.096 1081.44 396.096C1083.81 396.096 1085.92 396.595 1087.77 397.592C1089.62 398.589 1091.06 400.012 1092.08 401.86C1093.14 403.708 1093.67 405.864 1093.67 408.328ZM1085.97 406.348C1085.97 405.057 1085.53 404.031 1084.65 403.268C1083.77 402.505 1082.67 402.124 1081.35 402.124C1080.09 402.124 1079.02 402.491 1078.14 403.224C1077.29 403.957 1076.76 404.999 1076.55 406.348H1085.97ZM1105.16 388.44V421H1097.64V388.44H1105.16ZM1118.14 388.44V421H1110.61V388.44H1118.14ZM1127.38 393.896C1126.06 393.896 1124.97 393.515 1124.12 392.752C1123.3 391.96 1122.89 390.992 1122.89 389.848C1122.89 388.675 1123.3 387.707 1124.12 386.944C1124.97 386.152 1126.06 385.756 1127.38 385.756C1128.67 385.756 1129.72 386.152 1130.54 386.944C1131.39 387.707 1131.82 388.675 1131.82 389.848C1131.82 390.992 1131.39 391.96 1130.54 392.752C1129.72 393.515 1128.67 393.896 1127.38 393.896ZM1131.12 396.448V421H1123.59V396.448H1131.12ZM1151.53 396.184C1154.4 396.184 1156.69 397.123 1158.39 399C1160.12 400.848 1160.99 403.4 1160.99 406.656V421H1153.51V407.668C1153.51 406.025 1153.08 404.749 1152.23 403.84C1151.38 402.931 1150.24 402.476 1148.8 402.476C1147.36 402.476 1146.22 402.931 1145.37 403.84C1144.52 404.749 1144.09 406.025 1144.09 407.668V421H1136.57V396.448H1144.09V399.704C1144.85 398.619 1145.88 397.768 1147.17 397.152C1148.46 396.507 1149.91 396.184 1151.53 396.184ZM1175.54 396.096C1177.27 396.096 1178.79 396.448 1180.08 397.152C1181.4 397.856 1182.41 398.78 1183.11 399.924V396.448H1190.64V420.956C1190.64 423.215 1190.18 425.253 1189.27 427.072C1188.39 428.92 1187.03 430.387 1185.18 431.472C1183.36 432.557 1181.09 433.1 1178.36 433.1C1174.72 433.1 1171.77 432.235 1169.52 430.504C1167.26 428.803 1165.97 426.485 1165.64 423.552H1173.08C1173.31 424.491 1173.87 425.224 1174.75 425.752C1175.63 426.309 1176.72 426.588 1178.01 426.588C1179.56 426.588 1180.79 426.133 1181.7 425.224C1182.64 424.344 1183.11 422.921 1183.11 420.956V417.48C1182.38 418.624 1181.37 419.563 1180.08 420.296C1178.79 421 1177.27 421.352 1175.54 421.352C1173.52 421.352 1171.69 420.839 1170.04 419.812C1168.4 418.756 1167.1 417.275 1166.13 415.368C1165.19 413.432 1164.72 411.203 1164.72 408.68C1164.72 406.157 1165.19 403.943 1166.13 402.036C1167.1 400.129 1168.4 398.663 1170.04 397.636C1171.69 396.609 1173.52 396.096 1175.54 396.096ZM1183.11 408.724C1183.11 406.847 1182.58 405.365 1181.53 404.28C1180.5 403.195 1179.24 402.652 1177.74 402.652C1176.25 402.652 1174.97 403.195 1173.92 404.28C1172.89 405.336 1172.38 406.803 1172.38 408.68C1172.38 410.557 1172.89 412.053 1173.92 413.168C1174.97 414.253 1176.25 414.796 1177.74 414.796C1179.24 414.796 1180.5 414.253 1181.53 413.168C1182.58 412.083 1183.11 410.601 1183.11 408.724Z" fill="white"/>
<path d="M764 133C741.944 133 724 150.944 724 173C724 195.056 741.944 213 764 213C786.056 213 804 195.056 804 173C804 150.944 786.056 133 764 133ZM776.441 178.44C771.115 182.751 766.003 185.852 760.815 187.918C759.962 188.256 759.071 188.426 758.187 188.426C756.955 188.426 755.731 188.099 754.632 187.453C752.757 186.352 751.521 184.484 751.241 182.325C750.435 176.139 750.435 169.861 751.241 163.675C751.521 161.516 752.757 159.648 754.632 158.547C756.52 157.435 758.775 157.276 760.816 158.082C766.003 160.148 771.115 163.249 776.441 167.56C778.087 168.891 779.032 170.873 779.032 173C779.032 175.127 778.087 177.109 776.441 178.44Z" fill="black"/>
</svg>
